<svg width="60" height="61" viewBox="0 0 60 61" fill="none" xmlns="http://www.w3.org/2000/svg">
<path d="M26.5829 30.841C28.1835 30.841 29.7603 30.938 31.277 31.4928C31.403 31.5389 31.823 31.6495 31.9092 31.7871C31.9357 31.8293 31.8408 31.8664 31.7933 31.8817C31.4334 31.9975 31.009 31.9763 30.6395 31.9763C29.3693 31.9763 28.0857 31.9314 26.8253 31.7661C26.4279 31.7139 25.2775 31.6481 25.0867 31.1249C24.9942 30.8708 25.1724 30.6026 25.2975 30.3995C25.6161 29.8822 25.8392 29.331 26.1035 28.786C26.5842 27.7949 27.4436 27.701 28.4901 27.6454C28.7216 27.6331 29.3708 27.5359 29.5753 27.74C29.9261 28.0899 28.2223 29.058 28.116 29.1118C27.1479 29.6015 26.0654 29.8261 24.9866 29.8739C24.5107 29.895 24.175 29.7063 23.717 29.6322C22.9573 29.5091 21.8639 29.348 21.0828 29.5376C20.4767 29.6846 20.0436 29.9896 19.397 29.9896C18.9551 29.9896 18.4125 29.9735 18.0009 30.1315C17.4747 30.3334 18.1392 30.1788 18.4487 30.1788C18.608 30.1788 19.9343 30.3218 19.9343 30.0369C19.9343 29.7014 19.2588 29.6171 19.0387 29.6111C18.583 29.5989 18.1703 29.8093 17.7638 29.9896" stroke="#FFB9B9" stroke-width="5" stroke-linecap="round"/>
<path d="M33.2601 27.6951C33.2135 27.6959 32.9504 27.6952 33.1802 27.7422C33.4044 27.7881 34.2207 27.9717 34.3423 27.6806C34.4428 27.44 34.2096 27.0936 34.1062 26.9433C33.8035 26.5031 33.5102 26.2241 33.0331 25.9651C32.0732 25.4439 30.8344 25.4258 29.9444 26.0937C29.91 26.1194 29.3902 26.5432 29.4795 26.6698C29.5605 26.7844 29.9121 26.6352 29.9916 26.5846C30.2836 26.3986 29.7039 26.3881 29.6429 26.3835C28.9162 26.329 28.1868 26.3256 27.4585 26.3256C26.9195 26.3256 26.4902 26.3506 26.0222 26.6589C25.7698 26.8251 25.5365 27.0173 25.294 27.1969C25.1615 27.2951 25.0217 27.4049 24.8528 27.427C24.3283 27.4955 23.7835 27.4991 23.3057 27.7621C23.1014 27.8746 22.9053 27.9918 22.692 28.0864C22.4694 28.1851 22.1881 28.2351 21.991 28.3781C21.8238 28.4994 21.5806 28.5257 21.3809 28.5755C21.1797 28.6257 20.9872 28.6903 20.7926 28.7458C20.6696 28.7809 20.3098 28.9802 20.6782 28.811C21.124 28.6063 21.433 28.3473 21.9184 28.3473" stroke="#FFB9B9" stroke-width="5" stroke-linecap="round"/>
<path d="M21.5919 27.8256C21.8345 27.8256 22.1027 27.8584 22.3437 27.8184C22.9709 27.7141 23.4226 27.1463 23.9507 26.8274C24.3059 26.6129 24.6777 26.454 25.0783 26.3456C25.1818 26.3175 25.3129 26.3223 25.318 26.1952C25.3203 26.1366 25.3408 26.0243 25.2635 26.0068C25.1126 25.9726 24.9182 26.0427 24.7769 25.9597C24.7168 25.9244 25.0504 25.6312 25.0729 25.6046C25.4218 25.1921 25.7515 25.0416 26.2895 24.938C26.7586 24.8477 27.2308 24.7929 27.704 24.7278C27.8785 24.7038 28.0305 24.6471 28.1979 24.5974C28.4802 24.5136 28.7738 24.4699 29.0586 24.3945C29.4615 24.2878 29.8463 24.2523 30.2607 24.2387C30.7111 24.224 31.149 24.1083 31.6026 24.1083C31.9462 24.1083 32.2857 24.1333 32.6285 24.1409C32.8289 24.1453 33.0255 24.1735 33.2277 24.1735C33.2822 24.1735 33.3367 24.1735 33.3911 24.1735C33.5267 24.1735 33.5785 24.2215 33.5055 24.1083C33.4281 23.9881 33.3928 23.8559 33.324 23.7315C33.2644 23.6238 33.2291 23.3863 33.1297 23.3184C33.0069 23.2347 32.9418 23.0705 32.7883 23.025C32.5959 22.9679 32.4193 22.8927 32.2327 22.8221C31.7389 22.6352 31.2217 22.652 30.6946 22.6753C30.3767 22.6894 30.1202 22.8248 29.8285 22.9326C29.5231 23.0454 29.2101 23.1183 28.9024 23.2206C28.4372 23.3753 27.9674 23.5816 27.4915 23.6971C27.3197 23.7388 27.0863 23.7398 26.9195 23.6844" stroke="#FFB9B9" stroke-width="5" stroke-linecap="round"/>
<path d="M33.2928 31.0866C34.1039 31.0866 34.915 31.0866 35.7261 31.0866C35.9681 31.0866 36.2103 31.0884 36.4524 31.0866C36.5426 31.086 36.7199 31.1104 36.801 31.054C37.0189 30.9025 36.3305 29.8797 36.2563 29.7461C35.9849 29.2576 35.8107 28.7969 35.8586 28.2334C35.9018 27.7244 35.8787 27.2266 35.7515 26.7316C35.703 26.5429 35.6058 26.2204 35.4664 26.0813C35.229 25.8445 34.8302 26.0006 34.5349 25.8766C34.3915 25.8163 34.1213 25.9481 34.257 25.6773C34.3181 25.5555 34.4984 25.5496 34.613 25.5106C34.7867 25.4514 34.8426 25.4306 34.8944 25.2498" stroke="#FFB9B9" stroke-width="5" stroke-linecap="round"/>
<path d="M29.2073 36.5318C29.2294 35.8115 29.2459 35.0998 29.3798 34.3906C29.4592 33.9702 29.4034 34.6871 29.4034 34.7348C29.4034 35.3989 29.3858 36.0658 29.4198 36.7293C29.4237 36.8059 29.4788 37.0106 29.4216 36.9594C29.3049 36.855 29.169 36.5768 29.0966 36.4684C28.5565 35.6602 27.9826 34.8706 27.2862 34.1877C27.0852 33.9906 26.8668 33.8151 26.6525 33.6333C26.6141 33.6008 26.5204 33.5057 26.5707 33.5065C26.7383 33.5092 26.9539 33.6758 27.0719 33.7601C27.3835 33.9828 27.6654 34.2444 27.9217 34.5283C27.9501 34.5596 28.4926 35.3249 28.4846 35.3253C28.417 35.3294 28.2023 35.2064 28.2014 35.2058C27.7335 34.922 27.3186 34.5576 26.9357 34.1696C26.3745 33.6007 25.9366 32.9576 25.454 32.329C25.3004 32.1289 24.8628 32.0643 24.6387 31.9685C24.3512 31.8456 24.082 31.6972 23.8071 31.55C23.4336 31.3501 23.1382 31.5544 22.7938 31.666C22.6426 31.715 22.4682 31.7384 22.309 31.7384C22.0653 31.7384 21.8297 31.855 21.5827 31.8671C21.2889 31.8814 20.9947 31.8444 20.7093 31.8363C20.6058 31.8333 19.8061 31.7205 19.9248 31.5428" stroke="#FFB9B9" stroke-width="5" stroke-linecap="round"/>
<path d="M33.1022 33.4844C33.0376 35.2262 32.7715 37.032 32.0319 38.6243C31.9058 38.8957 31.9951 38.5338 31.6328 38.5338C30.3759 38.5338 30.5572 40.1853 30.2904 41.0133C30.025 41.837 29.8369 42.5544 29.8369 43.4204C29.8369 43.9534 29.9444 44.6072 29.8278 45.1307C29.6344 45.9989 29.3139 44.1534 29.2564 43.8909C29.0055 42.747 28.7671 41.7455 28.2858 40.6785C27.7326 39.4521 27.0549 38.0669 26.6078 36.7783C26.3675 36.0859 25.322 34.4583 24.576 34.1721C24.093 33.9868 22.233 33.1234 22.3265 33.24C22.49 33.4439 23.273 33.4117 23.551 33.5658C23.8962 33.7571 24.1025 34.0979 24.3764 34.3712C24.6685 34.6625 25.1553 35.067 25.2563 35.5204C25.3249 35.8285 25.8183 36.7791 25.9184 36.5792" stroke="#FFB9B9" stroke-width="4" stroke-linecap="round"/>
<path d="M31.1496 32.3767C30.4207 32.3767 29.7283 32.4254 29.0201 32.606C28.6464 32.7013 28.2609 32.6997 27.8914 32.7946C27.3299 32.9389 26.8143 33.1927 26.3089 33.4709C26.0321 33.6232 25.6605 33.6619 25.4158 33.8685C25.1709 34.0752 24.8987 34.2855 24.6681 34.507C24.5444 34.6258 24.3908 34.7672 24.2376 34.8436C24.2112 34.8568 24.1297 34.9307 24.1067 34.9307C23.8669 34.9307 24.5516 34.73 24.7903 34.7072C25.5203 34.6375 26.3031 34.6366 27.0303 34.7391C27.4288 34.7953 27.7852 34.8946 28.0834 35.1716C28.4422 35.5048 28.5578 35.9641 28.8456 36.347" stroke="#FFB9B9" stroke-width="4" stroke-linecap="round"/>
<path d="M35.391 32.5332C35.391 32.9038 35.4734 32.8833 35.7808 33.0614C36.2057 33.3075 35.8658 33.6325 35.6528 33.8392C35.3113 34.1707 35.0679 34.4385 34.8965 34.8782C34.7782 35.1815 34.5546 35.4218 34.4252 35.717C34.4103 35.7508 34.4228 36.466 34.239 36.6602C33.6821 37.2485 33.1686 37.9078 32.8019 38.6395C32.6937 38.8555 32.5299 39.0576 32.4703 39.2954C32.4003 39.5747 32.3433 39.8731 32.223 40.1371C31.9968 40.6335 31.7618 41.1328 31.5161 41.623" stroke="#FFB9B9" stroke-width="4" stroke-linecap="round"/>
<path d="M32.3536 32.7945C33.5079 32.7388 34.6767 32.2656 35.7514 31.8658C36.0535 31.7535 36.1563 31.7481 36.2751 32.0951C36.4309 32.5503 36.4632 33.0531 36.3303 33.5172C36.166 34.0909 36.0091 34.7653 35.6816 35.2702C35.5772 35.4311 35.4302 35.4998 35.2976 35.6271C35.0187 35.8951 35.5348 35.2387 35.5885 35.157C35.9 34.6835 36.3162 34.3439 36.7027 33.938C37.0414 33.5824 37.3242 33.1663 37.7965 32.9803C38.1027 32.8597 38.4688 32.7863 38.6605 32.5101C39.0805 31.9049 39.7523 31.4853 40.2896 30.9923C40.4992 30.7999 40.9977 30.518 41.0081 30.197C41.0245 29.6907 40.428 29.157 40.1034 28.8243C39.7983 28.5115 39.5625 28.0476 39.1609 27.8433C38.9651 27.7438 38.8178 27.6673 38.6343 27.5415C38.3164 27.3234 37.8856 26.934 37.4852 27.0481" stroke="#FFB9B9" stroke-width="4" stroke-linecap="round"/>
<path d="M29.1074 20.5702C29.4468 20.5548 29.7783 20.518 30.1197 20.518C30.3948 20.518 30.5777 20.6285 30.8353 20.7008C31.1781 20.797 31.3892 21.1572 31.7022 21.2464C32.0432 21.3436 31.5139 20.8314 31.8302 20.8314C31.8777 20.8314 32.0827 20.858 32.1095 20.8198C32.1301 20.7904 31.9553 20.6413 31.9379 20.6196C31.8628 20.5259 31.8208 20.4082 31.7779 20.2974C31.6387 19.938 31.6467 19.7174 31.3066 19.4993C30.7017 19.1113 30.2312 19.83 29.8899 20.2045C29.445 20.6928 28.9379 21.1198 28.3626 21.4467C27.9921 21.6573 27.3118 21.7685 27.0652 22.1374" stroke="#FFB9B9" stroke-width="4" stroke-linecap="round"/>
<path d="M30.1265 13.543C30.1265 14.1671 30.1265 14.7912 30.1265 15.4153C30.1265 15.8114 30.1377 16.2096 30.113 16.6052C30.0987 16.8341 30.0389 17.0689 30.0389 17.2977C30.0389 17.3254 30.2996 17.4946 30.3421 17.5128C30.6529 17.6457 30.9946 17.5998 31.3091 17.6943C31.5899 17.7787 32.251 18.3914 32.0234 18.2069C31.6377 17.8943 31.121 17.9917 30.6757 18.1078C30.3025 18.205 29.9482 18.3207 29.5638 18.3666C29.3784 18.3887 29.2158 18.4193 29.0483 18.5044C28.7794 18.6411 28.5012 18.8628 28.3087 19.0943C28.0983 19.3474 27.9646 19.6971 27.6972 19.8943C27.5125 20.0305 27.2463 20.1904 27.0099 20.1985C26.8993 20.2023 27.0445 20.0732 27.0705 20.0103C27.2549 19.5634 27.2776 19.121 27.6113 18.7464C27.9882 18.3234 28.3814 17.9389 28.8832 17.6573" stroke="#FFB9B9" stroke-width="2" stroke-linecap="round"/>
<path d="M28.3679 17.9902C28.5173 17.6175 28.7788 17.3607 28.9727 17.0221C29.0279 16.9257 29.0694 16.822 29.126 16.7263C29.2018 16.5982 29.3267 16.5021 29.3855 16.3633C29.4264 16.2666 29.4493 16.1554 29.4747 16.054C29.5054 15.9318 29.5715 15.7669 29.4646 15.9801C29.2233 16.4616 28.8715 16.8833 28.5819 17.3347C28.567 17.3579 28.4892 17.4847 28.4892 17.3952C28.4892 17.1749 28.543 16.958 28.6105 16.7498C28.7136 16.4321 28.8653 16.1355 28.9912 15.8271C29.1312 15.4845 29.2251 15.1935 29.2776 14.8238C29.3617 14.2316 29.3875 13.6131 29.5438 13.0355C29.6437 12.6665 29.738 12.296 29.8386 11.9279C29.8539 11.8722 29.8841 11.7389 29.8841 11.8758C29.8841 12.1502 29.8895 12.4204 29.9515 12.6893C30.0078 12.9335 30.1244 13.1515 30.1722 13.3952C30.2496 13.7897 30.3539 14.195 30.4603 14.5817C30.5722 14.9884 30.6775 15.393 30.8241 15.7885C30.9496 16.1268 31.0628 16.5121 31.247 16.8221C31.3147 16.9361 31.4001 17.0469 31.4913 17.1431C31.5307 17.1848 31.5395 17.1996 31.5081 17.123C31.3811 16.8124 31.2187 16.5245 31.1274 16.1986C30.9422 15.5374 31.0743 14.8316 30.9454 14.1548C30.8637 13.7254 30.802 13.2895 30.7163 12.8624C30.6524 12.5434 30.6329 12.2202 30.5799 11.8993C30.5689 11.8329 30.5151 11.2708 30.4384 11.2472C30.1675 11.1641 29.8199 11.2951 29.6011 11.0388C29.559 10.9896 30.0158 10.5774 30.1132 10.5346C30.29 10.457 30.4067 10.4659 30.2851 10.2523C30.1963 10.0965 30.0092 9.98161 29.9515 9.81527C29.8303 9.46593 30.3641 9.45445 30.2783 9.24047C30.1899 9.02002 30.1189 8.83879 30.0981 8.60013C30.076 8.34674 30.1233 8.06533 30.1233 7.83036C30.1233 7.50216 30.0584 7.16303 30.1031 6.83371C30.1311 6.62748 30.1873 6.44534 30.1873 6.2337C30.1873 6.10738 30.2183 5.92743 30.1806 5.80512C30.1549 5.72178 30.1267 5.61312 30.1267 5.52612" stroke="#FFB9B9" stroke-width="2" stroke-linecap="round"/>
<path d="M30.1267 5.1631C30.1267 6.22199 30.1572 3.04546 30.1572 1.98657" stroke="#FFB9B9" stroke-width="2" stroke-linecap="round"/>
<path d="M34.7059 31.0542C35.5961 31.0542 36.4864 31.0542 37.3766 31.0542C38.0574 31.0542 38.7021 30.7315 39.3654 30.7141C40.5261 30.6836 41.642 30.8275 42.7747 30.8275C43.5767 30.8275 42.2391 31.6473 41.9729 31.7912C41.4447 32.0766 40.9713 32.6504 40.4134 32.8431C40.146 32.9354 39.3462 33.1664 39.8894 32.7423C40.6671 32.1351 41.4389 31.6324 42.3201 31.1928C43.2177 30.745 42.9232 29.6949 42.0676 29.3787C41.7908 29.2765 40.9875 28.2324 41.0321 28.2324C41.4183 28.2324 42.036 28.4944 42.4337 28.5851C42.8682 28.6842 44.6391 28.9 43.2293 28.9C42.5828 28.9 41.863 28.8103 41.3478 28.3898C41.2283 28.2923 40.4549 27.8052 40.868 28.1064C41.5802 28.6257 42.0411 29.6929 42.3454 30.5125C42.6181 31.2471 42.6195 31.5077 43.4565 31.5077C43.8681 31.5077 45.1286 30.5682 44.7066 30.1472C44.0667 29.5088 42.8136 29.7729 42.3454 28.7867C42.1827 28.4442 42.2932 28.1419 41.9223 27.9363C41.7535 27.8427 41.7407 27.9574 41.8845 28.056C42.2714 28.3214 42.6949 28.5298 43.1409 28.6733C43.8049 28.887 44.316 29.3535 45.0413 29.3535C45.5263 29.3535 46.015 29.3369 46.4997 29.3535C46.9061 29.3675 47.2621 29.6384 47.6551 29.6874C47.891 29.7168 48.142 29.7336 48.3685 29.8134C48.6066 29.8972 47.3645 30.3047 47.2321 30.3488C46.6664 30.5369 46.112 30.8265 45.5274 30.9471C45.0792 31.0396 44.2942 31.1396 43.9111 31.3943" stroke="#FFB9B9" stroke-width="2" stroke-linecap="round"/>
<path d="M57.992 30.918C57.992 30.7527 58.0739 30.2249 57.9789 30.109C57.8157 29.91 57.4197 30.4833 57.3446 30.5689C57.1105 30.8358 57.0181 30.864 56.8738 30.52C56.7023 30.1113 56.6975 29.9518 56.3408 30.2721C56.2429 30.36 55.807 30.7802 55.6607 30.7353C55.3709 30.6463 55.164 30.0432 54.827 30.1677C54.5326 30.2765 54.3277 30.8527 53.9573 30.8527C53.6213 30.8527 53.5363 30.2266 53.1791 30.2134C52.6619 30.1943 52.2089 30.0733 51.7078 29.9198C51.4641 29.8452 51.1342 29.6435 50.8838 29.6262C50.6357 29.6092 50.3804 29.6262 50.1318 29.6262C49.7436 29.6262 49.3746 29.7179 48.9907 29.7404C48.6524 29.7603 48.3841 29.7552 48.0719 29.9198C47.9728 29.9721 47.2029 30.6831 47.5782 30.6831C48.91 30.6831 50.2413 30.7418 51.577 30.7418" stroke="#FFB9B9" stroke-width="2" stroke-linecap="round"/>
<path d="M44.6372 31.7866C43.9668 31.8381 43.3907 32.0611 42.77 32.2797C42.4112 32.4061 42.1202 32.6084 41.7266 32.6084" stroke="#FFB9B9" stroke-width="2" stroke-linecap="round"/>
<path d="M17.6056 31.6338C16.8939 31.5821 16.2108 31.2532 15.539 31.0298C15.4158 30.9889 15.09 31.019 14.9986 30.9303C14.4278 30.3767 14.9961 29.9209 15.2885 29.4008C15.4504 29.113 15.5534 28.7465 15.8429 28.5608C15.873 28.5415 15.9882 28.4414 15.8985 28.5284C15.6644 28.7555 15.3926 28.9436 15.1262 29.1301C14.7242 29.4115 14.2795 29.6156 14.2657 30.1667C14.2571 30.5074 14.2056 30.9304 14.3074 31.2589C14.3626 31.4371 14.4535 31.5574 14.5324 31.7148C14.5438 31.7375 14.4814 31.7176 14.4559 31.7171C14.3579 31.7153 14.2602 31.7093 14.1636 31.6916C13.9653 31.6553 13.7479 31.5302 13.6162 31.3746C13.3821 31.098 13.2914 30.7154 13.2451 30.3657C13.2172 30.1544 13.1489 29.8128 13.3078 29.6345C13.4736 29.4484 13.7087 29.343 13.9549 29.343C14.0575 29.343 14.0983 29.3335 13.9502 29.3615C13.687 29.4112 13.2908 29.4199 13.0573 29.5558C12.4737 29.8955 12.4705 30.5077 12.4705 31.0923" stroke="#FFB9B9" stroke-width="2" stroke-linecap="round"/>
<path d="M13.1799 30.4676C12.9108 30.4676 12.6664 30.3326 12.4098 30.2686C12.2096 30.2187 12.0148 30.2222 11.8114 30.2177C11.5257 30.2114 11.2528 30.0928 10.9649 30.0928C10.8848 30.0928 10.4444 30.2132 10.4569 30.2177C10.8488 30.3599 11.2378 30.3292 11.6444 30.3936C11.8128 30.4203 11.9851 30.4619 12.1362 30.5417C12.3209 30.6393 11.717 30.5378 11.5099 30.5093C10.9548 30.4327 10.4091 30.3027 9.86082 30.1992C9.30792 30.0949 8.76767 30.2082 8.2326 30.301C7.69487 30.3943 7.1993 30.2594 6.66701 30.2594C6.45916 30.2594 6.24329 30.2413 6.04077 30.2918C5.55765 30.4123 5.02749 30.3427 4.52852 30.3427C3.68474 30.3427 2.82994 30.5093 1.99109 30.5093" stroke="#FFB9B9" stroke-width="2" stroke-linecap="round"/>
<path d="M29.9663 56.365C29.9663 56.5684 29.9511 56.7652 29.9064 56.9643C29.8818 57.0737 29.8585 57.1673 29.8585 57.2795C29.8585 57.4401 29.8155 57.9201 29.8155 57.7595C29.8155 56.9971 29.7814 56.2337 29.8897 55.4779C29.9085 55.3463 29.8956 55.2239 29.8849 55.0923C29.8754 54.9761 29.8869 54.6262 29.8789 54.7425C29.8381 55.3327 29.8198 55.9203 29.8143 56.5119C29.8119 56.7658 29.8493 57.1081 29.7556 57.3535C29.7108 57.471 29.7508 57.6641 29.7508 57.7929C29.7508 57.9803 29.7519 57.5035 29.752 57.492C29.7621 56.8491 29.8352 56.2117 29.837 55.5675C29.8381 55.1851 29.9016 54.8102 29.9016 54.4309" stroke="#FFB9B9" stroke-width="2" stroke-linecap="round"/>
<path d="M29.7941 46.1788C29.7941 46.5608 29.7941 46.9428 29.7941 47.3249C29.7941 47.5264 29.7726 48.1305 29.7726 47.929C29.7726 47.4367 29.7368 46.9244 29.8827 46.4474C29.9592 46.1972 30.1113 45.9916 30.2249 45.7597C30.3332 45.5387 30.4286 45.3165 30.5743 45.1162C30.7309 44.9009 30.8642 44.6725 31.0291 44.4631C31.1035 44.3686 31.1885 44.2858 31.2636 44.1921C31.3612 44.0704 31.4394 43.9364 31.5413 43.8172C31.6889 43.6445 31.3683 43.9247 31.3462 43.9438C30.9312 44.3032 30.5468 44.7606 30.3159 45.2618C30.0025 45.942 29.9102 46.717 29.818 47.4526C29.7896 47.6795 29.7705 47.9065 29.7522 48.1343C29.7515 48.1428 29.754 48.1175 29.7558 48.1093C29.796 47.9237 29.8711 47.7455 29.9592 47.578C30.1086 47.2943 30.2731 47.0273 30.3769 46.7232C30.4043 46.643 30.4284 46.5611 30.4619 46.4832C30.4661 46.4733 30.5408 46.3413 30.5432 46.3483C30.5645 46.4091 30.4914 46.544 30.4738 46.5942C30.4108 46.7745 30.3577 46.9558 30.3111 47.141C30.222 47.4949 30.099 47.8443 30.0753 48.2108C30.026 48.9731 30.0513 49.7428 29.9652 50.5018C29.88 51.253 29.766 51.9954 29.7343 52.7523C29.7191 53.1134 29.751 53.4705 29.751 53.8292C29.751 53.9404 29.7539 54.0407 29.7893 54.1468C29.7944 54.1619 29.7905 54.1149 29.7893 54.099C29.7668 53.7896 29.751 53.4797 29.7295 53.1702C29.654 52.0841 29.6226 50.997 29.4722 49.9168C29.4384 49.6739 29.4423 49.3745 29.3549 49.142C29.2046 48.7421 29.1191 48.3341 29.0617 47.9123C29.0251 47.6433 28.9952 47.3738 28.9648 47.104C28.9415 46.8975 28.9267 46.6936 28.8463 46.5011" stroke="#FFB9B9" stroke-width="2" stroke-linecap="round"/>
<path d="M44.9641 31.0801C45.5168 31.0801 46.0359 31.1476 46.5454 31.3686C46.6035 31.3938 46.8148 31.3971 46.8419 31.343" stroke="#FFB9B9" stroke-width="2" stroke-linecap="round"/>
<path d="M30.9924 59.9999C30.2286 36.469 37.9254 30.9099 59.7344 31.7835" stroke="#FFB9B9"/>
<path d="M59.7342 29.3005C36.1443 29.9403 30.5012 22.1587 31.4902 0.405785" stroke="#FFB9B9"/>
<path d="M29.0012 0.405813C30.47 23.9034 21.9548 29.9289 0.129452 29.7063" stroke="#FFB9B9"/>
<path d="M0.129661 31.6928C23.6812 30.2056 29.2047 38.2257 29.0019 60.0001" stroke="#FFB9B9"/>
<path d="M59.7343 29.7971C59.7343 46.2535 46.3623 59.5941 29.8671 59.5941C13.372 59.5941 0 46.2535 0 29.7971C0 13.3406 13.372 0 29.8671 0C46.3623 0 59.7343 13.3406 59.7343 29.7971ZM2.1944 29.7971C2.1944 45.0444 14.5839 57.4049 29.8671 57.4049C45.1504 57.4049 57.5399 45.0444 57.5399 29.7971C57.5399 14.5497 45.1504 2.18925 29.8671 2.18925C14.5839 2.18925 2.1944 14.5497 2.1944 29.7971Z" fill="#FFB9B9"/>
<path d="M30.9924 59.9999C30.2286 36.469 37.9254 30.9099 59.7344 31.7835" stroke="#FFB9B9"/>
<path d="M59.7342 29.3005C36.1443 29.9403 30.5012 22.1587 31.4902 0.405785" stroke="#FFB9B9"/>
<path d="M29.0012 0.405813C30.47 23.9034 21.9548 29.9289 0.129452 29.7063" stroke="#FFB9B9"/>
<path d="M0.129661 31.6928C23.6812 30.2056 29.2047 38.2257 29.0019 60.0001" stroke="#FFB9B9"/>
<path d="M59.7343 29.7971C59.7343 46.2535 46.3623 59.5941 29.8671 59.5941C13.372 59.5941 0 46.2535 0 29.7971C0 13.3406 13.372 0 29.8671 0C46.3623 0 59.7343 13.3406 59.7343 29.7971ZM2.1944 29.7971C2.1944 45.0444 14.5839 57.4049 29.8671 57.4049C45.1504 57.4049 57.5399 45.0444 57.5399 29.7971C57.5399 14.5497 45.1504 2.18925 29.8671 2.18925C14.5839 2.18925 2.1944 14.5497 2.1944 29.7971Z" fill="#FFB9B9"/>
</svg>
