<svg width="60" height="60" viewBox="0 0 60 60" fill="none" xmlns="http://www.w3.org/2000/svg">
<path d="M16.9998 20.5H11.562C10.001 20.5 9.04174 22.2085 9.8544 23.5412L16.6999 34.7679C19.06 38.6384 23.266 41 27.7993 41H31.9998C32.375 39.481 32.6974 38.2273 32.9747 37.2481C33.815 34.2809 35.697 37.6972 37.8777 39.8779L39.414 41.4142C39.7891 41.7893 40.2978 42 40.8282 42H47.9807C48.8082 42 49.2777 41.0522 48.7761 40.394L42.8738 32.6472C42.3519 31.9622 42.3271 31.02 42.8122 30.3084L48.4339 22.0633C48.8865 21.3995 48.4111 20.5 47.6077 20.5H42.8084C41.3808 20.5 40.0627 21.265 39.3544 22.5045L35.513 29.227C34.9445 30.2217 33.698 30.5991 32.6733 30.0867C32.5661 30.0331 32.4961 29.926 32.4901 29.8063L32.0948 21.9001C32.0416 20.8357 31.163 20 30.0973 20H24.9866C24.1766 20 23.5305 20.6761 23.5673 21.4853L23.9684 30.3088C23.9795 30.5535 23.6838 30.684 23.5105 30.5107C23.5034 30.5036 23.497 30.4957 23.4915 30.4873L16.9998 20.5Z" stroke="#FFB9B9" stroke-width="3"/>
<ellipse cx="23.1313" cy="20.0434" rx="2.66148" ry="1.33989" transform="rotate(-16.5721 23.1313 20.0434)" fill="#FFB9B9"/>
<path d="M60 30C60 46.5685 46.5685 60 30 60C13.4315 60 0 46.5685 0 30C0 13.4315 13.4315 0 30 0C46.5685 0 60 13.4315 60 30ZM2.20415 30C2.20415 45.3512 14.6488 57.7958 30 57.7958C45.3512 57.7958 57.7958 45.3512 57.7958 30C57.7958 14.6488 45.3512 2.20415 30 2.20415C14.6488 2.20415 2.20415 14.6488 2.20415 30Z" fill="#FFB9B9"/>
</svg>
