<svg width="60" height="60" viewBox="0 0 60 60" fill="none" xmlns="http://www.w3.org/2000/svg">
<path d="M60 30C60 46.5685 46.5685 60 30 60C13.4315 60 0 46.5685 0 30C0 13.4315 13.4315 0 30 0C46.5685 0 60 13.4315 60 30ZM1.94122 30C1.94122 45.4964 14.5036 58.0588 30 58.0588C45.4964 58.0588 58.0588 45.4964 58.0588 30C58.0588 14.5036 45.4964 1.94122 30 1.94122C14.5036 1.94122 1.94122 14.5036 1.94122 30Z" fill="#FFB9B9"/>
<path fill-rule="evenodd" clip-rule="evenodd" d="M23.8753 12.0001L22.4867 17.4004H22.3478L20.891 12.0001H18.6266L21.4999 20.9551V24.7234H23.149V20.7073L26.1589 12.0001H23.8753ZM31.0594 17.8854C31.0594 17.1228 30.8117 16.3751 30.3758 15.9371C29.8716 15.4329 29.6196 15.1403 28.7929 15.1403C27.885 15.1403 27.633 15.4843 27.0946 15.9371C26.5562 16.3986 26.3191 17.0544 26.3191 17.8235V22.0019C26.3191 22.8521 26.5841 23.525 27.1052 24.0313C27.6286 24.5269 27.8807 24.7748 28.7501 24.7748C29.6537 24.7748 29.7691 24.5313 30.2924 24.0528C30.8051 23.57 31.0593 22.8991 31.0593 22.0446L31.0594 17.8854ZM37.4233 15.1488H35.8275V21.5233C35.6395 21.7433 34.8063 22.8712 34.6569 22.8712C34.4732 22.8712 34.4369 22.82 34.3515 22.7132C34.2682 22.6085 34.2254 22.4398 34.2254 22.2027V15.1488H32.6275V22.8883C32.6275 23.4887 32.6787 24.3623 32.9992 24.687C33.2171 24.907 33.905 24.9476 34.5308 24.4691C35.0116 24.1038 35.4067 23.5933 35.8275 22.8306V24.5268H37.4233V15.1488ZM47 34.4091C47 30.7989 44.1418 27.8723 40.6084 27.8723H18.3938C14.8626 27.8723 12 30.7989 12 34.4091V40.4653C12 44.0691 14.8626 47.0001 18.3938 47.0001H40.6084C44.1418 47.0001 47 44.0691 47 40.4653V34.4091ZM38.1923 43.7978C37.4617 43.7978 36.8935 43.5692 36.4749 43.1036C36.0583 42.655 35.8468 42.0205 35.8468 41.2152V37.4554C35.8468 36.7355 36.0796 35.4047 36.5368 34.9561C37.0004 34.4925 37.5835 34.2703 38.3077 34.2703C39.0532 34.2703 39.6236 34.4776 40.0145 34.8962C40.4204 35.3277 40.6169 36.6671 40.6169 37.4554V39.0426H37.515V41.1596C37.515 41.6039 37.5727 41.9051 37.6795 42.0782C37.7884 42.2469 37.9636 42.3345 38.2306 42.3345C38.4956 42.3345 38.6792 42.2619 38.7859 42.1166C38.8907 41.9714 38.9504 41.6616 38.9504 41.1596V40.7814H40.6167V41.2151C40.6167 42.0738 40.4201 42.7168 40.01 43.1505C39.6001 43.5778 38.9935 43.7978 38.1923 43.7978ZM38.9507 37.7416V37.4468C38.9507 37.0922 38.8908 36.1053 38.7798 35.9578C38.6751 35.8062 38.4871 35.7292 38.2393 35.7292C37.9852 35.7292 37.7972 35.8061 37.686 35.9578C37.575 36.1052 37.5151 37.0922 37.5151 37.4468V37.7416H38.9507ZM32.7535 43.8192C32.4224 43.8192 32.1298 43.7508 31.8755 43.6205C31.6256 43.4966 31.3863 43.3044 31.1642 43.031V43.6997H29.4829V31.0723H31.0658V34.8898C31.2944 34.6248 31.6362 34.4197 31.8755 34.281C32.134 34.1421 32.3882 34.0717 32.651 34.0717C33.1743 34.0717 33.5845 34.2661 33.8579 34.6378C34.1335 35.0095 34.2723 35.5542 34.2723 36.2678V41.8989C34.2723 42.5184 34.142 42.9884 33.8857 43.3196C33.6208 43.6462 33.2427 43.8192 32.7535 43.8192ZM32.7044 36.3617C32.7044 36.069 32.4972 35.8468 32.3861 35.691C32.2579 35.5393 32.085 35.471 31.865 35.471C31.7411 35.471 31.6279 35.4967 31.5083 35.5542C31.3973 35.6077 31.1836 35.6994 31.0661 35.817V42.0399C31.1986 42.1766 31.4314 42.2856 31.566 42.3475C31.692 42.4137 31.8223 42.4458 31.9655 42.4458C32.1684 42.4458 32.3201 42.3817 32.4162 42.2556C32.5081 42.1382 32.7046 41.9374 32.7046 41.6575L32.7044 36.3617ZM26.2337 42.655C25.926 42.9968 25.6078 43.3706 25.2724 43.5521C24.9434 43.7444 24.6208 43.8278 24.3047 43.8278C23.9202 43.8278 23.6296 43.7017 23.4353 43.4411C23.2387 43.1805 23.0935 42.7981 23.0935 42.2812V34.2916H24.7064V41.6915C24.7064 41.8944 24.7427 42.0398 24.8111 42.1337C24.8837 42.2213 24.9969 42.2704 25.1529 42.2704C25.2725 42.2704 25.5289 42.2105 25.7169 42.0846C25.9049 41.9672 26.1761 41.809 26.3321 41.6296V34.2916H27.9022V43.8021H26.2338L26.2337 42.655ZM21.5426 43.7936H19.9404V32.6617H18.3766V31.0723H23.1575V32.6617H21.5426V43.7936ZM28.6968 23.0486C28.4318 23.0486 28.2267 22.9738 28.09 22.8242C27.9448 22.6768 27.8743 22.4653 27.8743 22.1897V17.7528C27.8743 17.5328 27.9533 17.3575 28.1029 17.2252C28.2545 17.0885 28.4511 17.0201 28.6968 17.0201C28.9596 17.0201 29.0728 17.0885 29.2372 17.2252C29.3975 17.3577 29.4829 17.5328 29.4829 17.7528V22.1897C29.4829 22.461 29.3997 22.6682 29.2437 22.8242C29.077 22.9739 28.968 23.0486 28.6968 23.0486Z" fill="#FFB9B9"/>
</svg>
