<svg width="22" height="22" viewBox="0 0 22 22" fill="none" xmlns="http://www.w3.org/2000/svg">
<path d="M17.0386 9.10042L12.8996 4.96144M1 21L4.50195 20.6109C4.92981 20.5633 5.14374 20.5396 5.3437 20.4748C5.5211 20.4174 5.68992 20.3363 5.84559 20.2336C6.02105 20.1179 6.17325 19.9657 6.47765 19.6613L20.1428 5.99619C21.2857 4.85324 21.2857 3.00016 20.1428 1.85721C18.9998 0.714264 17.1468 0.714263 16.0038 1.85721L2.33868 15.5223C2.03427 15.8267 1.88207 15.9789 1.76637 16.1544C1.66372 16.3101 1.58258 16.4789 1.52515 16.6563C1.46042 16.8562 1.43665 17.0702 1.38911 17.498L1 21Z" stroke="#E0ADFF" stroke-linecap="round" stroke-linejoin="round"/>
</svg>
