<svg width="19" height="25" viewBox="0 0 19 25" fill="none" xmlns="http://www.w3.org/2000/svg">
<path d="M1.49286 25C0.661607 25 0 24.4052 0 23.6744C0 23.3515 0.11875 23.0286 0.339286 22.7056L7.56607 12.4745V12.3555L0.508929 2.43032C0.254464 2.07342 0.169643 1.76751 0.169643 1.4276C0.169643 0.628824 0.865179 0 1.74732 0C2.34107 0 2.66339 0.203943 3.13839 0.900748L9.55089 10.0952H9.66964L16.2009 0.832767C16.642 0.220938 16.9304 0 17.5071 0C18.3384 0 19 0.594833 19 1.32563C19 1.64854 18.8982 1.95445 18.6607 2.29436L11.3152 12.5085V12.6105L18.4402 22.6207C18.6438 22.9096 18.7625 23.2495 18.7625 23.5894C18.7625 24.3712 18.05 25 17.2018 25C16.625 25 16.2687 24.7791 15.8786 24.2182L9.41518 14.9898H9.29643L2.79911 24.1672C2.34107 24.8131 2.05268 25 1.49286 25Z" fill="black"/>
</svg>
