<svg width="118" height="27" viewBox="0 0 118 27" fill="none" xmlns="http://www.w3.org/2000/svg">
<path d="M10.8179 26.3931C12.6807 26.3931 13.9282 25.1797 13.9282 23.2998V4.44971C13.9282 2.29639 12.6123 0.946289 10.3564 0.946289C9.12598 0.946289 8.06641 1.08301 6.75049 1.97168L2.08496 5.15039C1.19629 5.76562 0.837402 6.46631 0.837402 7.37207C0.837402 8.63672 1.74316 9.54248 2.95654 9.54248C3.55469 9.54248 3.93066 9.40576 4.49463 9.0127L7.5708 6.87646H7.69043V23.2998C7.69043 25.1797 8.95508 26.3931 10.8179 26.3931ZM40.6396 26.3931C42.3486 26.3931 43.5962 25.4019 43.5962 23.4023V21.7959H44.5532C46.1938 21.7959 47.0483 20.7876 47.0483 19.3691C47.0483 17.9507 46.2109 16.9253 44.5532 16.9253H43.5962V5.35547C43.5962 2.67236 41.5625 0.946289 38.418 0.946289C35.9399 0.946289 34.4873 1.9375 32.5903 4.87695C30.3174 8.31201 28.3521 11.4224 26.7114 14.3789C25.8398 15.917 25.4639 17.0962 25.4639 18.2925C25.4639 20.3774 27.002 21.7959 29.2578 21.7959H37.666V23.4023C37.666 25.4019 38.9136 26.3931 40.6396 26.3931ZM37.8369 17.1475H30.7104V16.9766C32.71 13.1313 34.7437 9.96973 37.7173 5.66309H37.8369V17.1475ZM58.8574 26.6152C65.6934 26.6152 69.812 21.7104 69.812 13.5586C69.812 10.585 69.231 8.02148 68.2227 6.10742C66.2744 2.43311 63.0615 0.724121 59.0283 0.724121C53.3032 0.724121 49.1162 4.39844 49.1162 9.62793C49.1162 14.4985 52.8076 17.626 57.3022 17.626C60.6006 17.626 62.8906 15.9854 63.7109 13.644H63.8135C63.8135 13.7466 63.8135 13.832 63.8135 13.9004C63.8818 18.4121 62.5317 21.813 59.1309 21.813C57.5586 21.813 56.5845 21.2661 55.4565 20.1211C54.585 19.2837 53.9014 18.7368 52.6538 18.7368C51.0132 18.7368 50.1245 19.8135 50.1245 21.1465C50.1245 21.5908 50.2271 22.0181 50.4321 22.4795C51.4917 24.8721 54.6875 26.6152 58.8574 26.6152ZM59.0625 13.1997C56.8237 13.1997 55.1489 11.6274 55.1489 9.37158C55.1489 7.20117 56.8921 5.52637 59.1138 5.52637C61.3184 5.52637 63.0444 7.23535 63.0444 9.45703C63.0444 11.6445 61.3354 13.1997 59.0625 13.1997ZM82.2705 26.6152C89.1064 26.6152 93.2251 21.7104 93.2251 13.5586C93.2251 10.585 92.644 8.02148 91.6357 6.10742C89.6875 2.43311 86.4746 0.724121 82.4414 0.724121C76.7163 0.724121 72.5293 4.39844 72.5293 9.62793C72.5293 14.4985 76.2207 17.626 80.7153 17.626C84.0137 17.626 86.3037 15.9854 87.124 13.644H87.2266C87.2266 13.7466 87.2266 13.832 87.2266 13.9004C87.2949 18.4121 85.9448 21.813 82.5439 21.813C80.9717 21.813 79.9976 21.2661 78.8696 20.1211C77.998 19.2837 77.3145 18.7368 76.0669 18.7368C74.4263 18.7368 73.5376 19.8135 73.5376 21.1465C73.5376 21.5908 73.6401 22.0181 73.8452 22.4795C74.9048 24.8721 78.1006 26.6152 82.2705 26.6152ZM82.4756 13.1997C80.2368 13.1997 78.562 11.6274 78.562 9.37158C78.562 7.20117 80.3052 5.52637 82.5269 5.52637C84.7314 5.52637 86.4575 7.23535 86.4575 9.45703C86.4575 11.6445 84.7485 13.1997 82.4756 13.1997ZM95.9253 22.3428H98.4717V23.2485C98.4717 25.231 99.5996 26.376 101.479 26.376C103.376 26.376 104.504 25.231 104.504 23.2485V22.3428H109.956C110.469 22.3428 110.759 22.0522 110.759 21.5908C110.759 21.1123 110.469 20.8218 109.956 20.8218H104.504V17.3867H108.452C113.545 17.3867 117.083 14.1396 117.083 9.62793C117.083 5.01367 113.767 1.80078 108.828 1.80078H101.599C99.6167 1.80078 98.4717 2.99707 98.4717 5.08203V15.7803H95.9082C95.3784 15.7803 95.0708 16.0879 95.0708 16.5835C95.0708 17.062 95.3784 17.3867 95.9082 17.3867H98.4717V20.8218H95.9253C95.3955 20.8218 95.105 21.1123 95.105 21.5908C95.105 22.0522 95.3955 22.3428 95.9253 22.3428ZM104.504 12.9434V6.44922H106.965C109.546 6.44922 110.981 7.67969 110.981 9.6792C110.981 11.73 109.546 12.9434 106.931 12.9434H104.504Z" fill="url(#paint0_linear_1300_543)" fill-opacity="0.8"/>
<defs>
<linearGradient id="paint0_linear_1300_543" x1="-18.4292" y1="-7" x2="128.996" y2="34.2907" gradientUnits="userSpaceOnUse">
<stop offset="0.154411"/>
<stop offset="0.46875" stop-opacity="0.55"/>
<stop offset="0.831659"/>
</linearGradient>
</defs>
</svg>
