<svg width="131" height="38" viewBox="0 0 131 38" fill="none" xmlns="http://www.w3.org/2000/svg">
<path d="M14.0312 37.8789C23.7969 37.8789 29.6807 30.8721 29.6807 19.2266C29.6807 14.9785 28.8506 11.3164 27.4102 8.58203C24.627 3.33301 20.0371 0.891602 14.2754 0.891602C6.09668 0.891602 0.115234 6.14062 0.115234 13.6113C0.115234 20.5693 5.38867 25.0371 11.8096 25.0371C16.5215 25.0371 19.793 22.6934 20.9648 19.3486H21.1113C21.1113 19.4951 21.1113 19.6172 21.1113 19.7148C21.209 26.1602 19.2803 31.0186 14.4219 31.0186C12.1758 31.0186 10.7842 30.2373 9.17285 28.6016C7.92773 27.4053 6.95117 26.624 5.16895 26.624C2.8252 26.624 1.55566 28.1621 1.55566 30.0664C1.55566 30.7012 1.70215 31.3115 1.99512 31.9707C3.50879 35.3887 8.07422 37.8789 14.0312 37.8789ZM14.3242 18.7139C11.126 18.7139 8.7334 16.4678 8.7334 13.2451C8.7334 10.1445 11.2236 7.75195 14.3975 7.75195C17.5469 7.75195 20.0127 10.1934 20.0127 13.3672C20.0127 16.4922 17.5713 18.7139 14.3242 18.7139ZM47.4785 37.8789C57.2441 37.8789 63.1279 30.8721 63.1279 19.2266C63.1279 14.9785 62.2979 11.3164 60.8574 8.58203C58.0742 3.33301 53.4844 0.891602 47.7227 0.891602C39.5439 0.891602 33.5625 6.14062 33.5625 13.6113C33.5625 20.5693 38.8359 25.0371 45.2568 25.0371C49.9688 25.0371 53.2402 22.6934 54.4121 19.3486H54.5586C54.5586 19.4951 54.5586 19.6172 54.5586 19.7148C54.6562 26.1602 52.7275 31.0186 47.8691 31.0186C45.623 31.0186 44.2314 30.2373 42.6201 28.6016C41.375 27.4053 40.3984 26.624 38.6162 26.624C36.2725 26.624 35.0029 28.1621 35.0029 30.0664C35.0029 30.7012 35.1494 31.3115 35.4424 31.9707C36.9561 35.3887 41.5215 37.8789 47.4785 37.8789ZM47.7715 18.7139C44.5732 18.7139 42.1807 16.4678 42.1807 13.2451C42.1807 10.1445 44.6709 7.75195 47.8447 7.75195C50.9941 7.75195 53.46 10.1934 53.46 13.3672C53.46 16.4922 51.0186 18.7139 47.7715 18.7139ZM80.9258 37.8789C90.6914 37.8789 96.5752 30.8721 96.5752 19.2266C96.5752 14.9785 95.7451 11.3164 94.3047 8.58203C91.5215 3.33301 86.9316 0.891602 81.1699 0.891602C72.9912 0.891602 67.0098 6.14062 67.0098 13.6113C67.0098 20.5693 72.2832 25.0371 78.7041 25.0371C83.416 25.0371 86.6875 22.6934 87.8594 19.3486H88.0059C88.0059 19.4951 88.0059 19.6172 88.0059 19.7148C88.1035 26.1602 86.1748 31.0186 81.3164 31.0186C79.0703 31.0186 77.6787 30.2373 76.0674 28.6016C74.8223 27.4053 73.8457 26.624 72.0635 26.624C69.7197 26.624 68.4502 28.1621 68.4502 30.0664C68.4502 30.7012 68.5967 31.3115 68.8896 31.9707C70.4033 35.3887 74.9688 37.8789 80.9258 37.8789ZM81.2188 18.7139C78.0205 18.7139 75.6279 16.4678 75.6279 13.2451C75.6279 10.1445 78.1182 7.75195 81.292 7.75195C84.4414 7.75195 86.9072 10.1934 86.9072 13.3672C86.9072 16.4922 84.4658 18.7139 81.2188 18.7139ZM100.433 31.7754H104.07V33.0693C104.07 35.9014 105.682 37.5371 108.367 37.5371C111.077 37.5371 112.688 35.9014 112.688 33.0693V31.7754H120.477C121.209 31.7754 121.624 31.3604 121.624 30.7012C121.624 30.0176 121.209 29.6025 120.477 29.6025H112.688V24.6953H118.328C125.604 24.6953 130.657 20.0566 130.657 13.6113C130.657 7.01953 125.921 2.42969 118.865 2.42969H108.538C105.706 2.42969 104.07 4.13867 104.07 7.11719V22.4004H100.408C99.6514 22.4004 99.2119 22.8398 99.2119 23.5479C99.2119 24.2314 99.6514 24.6953 100.408 24.6953H104.07V29.6025H100.433C99.6758 29.6025 99.2607 30.0176 99.2607 30.7012C99.2607 31.3604 99.6758 31.7754 100.433 31.7754ZM112.688 18.3477V9.07031H116.204C119.891 9.07031 121.941 10.8281 121.941 13.6846C121.941 16.6143 119.891 18.3477 116.155 18.3477H112.688Z" fill="url(#paint0_linear_1300_542)"/>
<defs>
<linearGradient id="paint0_linear_1300_542" x1="-22.7522" y1="-11" x2="147.958" y2="26.6874" gradientUnits="userSpaceOnUse">
<stop offset="0.154411"/>
<stop offset="0.46875" stop-opacity="0.55"/>
<stop offset="0.831659"/>
</linearGradient>
</defs>
</svg>
