<svg width="74" height="55" viewBox="0 0 74 55" fill="none" xmlns="http://www.w3.org/2000/svg">
<path d="M73.1226 52.819C73.1226 52.3226 72.8744 52.0247 72.3779 51.6276L38.6214 27.0052V26.9556L72.4276 2.38281C72.924 2.03532 73.1226 1.73747 73.1226 1.24105C73.1226 0.595704 72.6261 0.0992847 71.9808 0.0992847C71.6333 0.0992847 71.3354 0.198569 70.988 0.446778L36.5365 25.4663L2.08496 0.397135C1.68783 0.0992838 1.43962 4.73579e-09 1.04248 0C0.49642 -6.51171e-09 6.23349e-07 0.496419 6.15061e-07 1.19141C6.09733e-07 1.63818 0.198568 1.98568 0.74463 2.33317L34.5011 26.9556V27.0052L0.694987 51.6276C0.198568 51.9751 5.91974e-09 52.2729 0 52.7694C-7.69566e-09 53.4147 0.496419 53.9111 1.14176 53.9111C1.5389 53.9111 1.78711 53.8118 2.18424 53.5636L36.5365 28.4945H36.5861L71.0376 53.6133C71.4347 53.9111 71.6829 54.0104 72.0304 54.0104C72.6261 54.0104 73.1226 53.514 73.1226 52.819Z" fill="url(#paint0_linear_1300_547)"/>
<defs>
<linearGradient id="paint0_linear_1300_547" x1="-24.6221" y1="67.4187" x2="-20.5707" y2="-13.8783" gradientUnits="userSpaceOnUse">
<stop offset="0.154411"/>
<stop offset="0.46875" stop-opacity="0.55"/>
<stop offset="0.831659"/>
</linearGradient>
</defs>
</svg>
